<svg width="40" height="40" viewBox="0 0 40 40" fill="none" xmlns="http://www.w3.org/2000/svg">
<path d="M20 5L23.3928 13.6025C23.706 14.3966 23.8625 14.7937 24.1023 15.1285C24.3148 15.4253 24.5747 15.6851 24.8715 15.8977C25.2063 16.1374 25.6033 16.294 26.3975 16.6072L35 20L26.3975 23.3928C25.6033 23.706 25.2063 23.8625 24.8715 24.1023C24.5747 24.3148 24.3148 24.5747 24.1023 24.8715C23.8625 25.2063 23.706 25.6033 23.3928 26.3975L20 35L16.6072 26.3975C16.294 25.6033 16.1374 25.2063 15.8977 24.8715C15.6851 24.5747 15.4253 24.3148 15.1285 24.1023C14.7937 23.8625 14.3966 23.706 13.6025 23.3928L5 20L13.6025 16.6072C14.3966 16.294 14.7937 16.1374 15.1285 15.8977C15.4253 15.6851 15.6851 15.4253 15.8977 15.1285C16.1374 14.7937 16.294 14.3966 16.6072 13.6025L20 5Z" fill="#FEE088" stroke="#FEE088" stroke-width="0.5" stroke-linecap="round" stroke-linejoin="round"/>
</svg>
